<mxfile host="app.diagrams.net" modified="2024-06-13T05:20:42.108Z" agent="Mozilla/5.0 (Windows NT 10.0; Win64; x64; rv:127.0) Gecko/20100101 Firefox/127.0" etag="4Wc-Egj6GUMfiwbHx0nv" version="24.5.4" type="github">
  <diagram name="Page-1" id="KT2eEJgF6nvxrAjynkpU">
    <mxGraphModel dx="1434" dy="781" grid="0" gridSize="10" guides="1" tooltips="1" connect="1" arrows="1" fold="1" page="1" pageScale="1" pageWidth="850" pageHeight="1100" math="0" shadow="0">
      <root>
        <mxCell id="0" />
        <mxCell id="1" parent="0" />
        <mxCell id="wHsNp2GTgriPA2F1LTe3-1" value="" style="endArrow=none;dashed=1;html=1;dashPattern=1 3;strokeWidth=2;rounded=0;" parent="1" source="wHsNp2GTgriPA2F1LTe3-5" edge="1">
          <mxGeometry width="50" height="50" relative="1" as="geometry">
            <mxPoint x="229" y="360" as="sourcePoint" />
            <mxPoint x="94" y="747" as="targetPoint" />
          </mxGeometry>
        </mxCell>
        <mxCell id="wHsNp2GTgriPA2F1LTe3-2" value="" style="endArrow=none;dashed=1;html=1;dashPattern=1 3;strokeWidth=2;rounded=0;entryX=0.5;entryY=1;entryDx=0;entryDy=0;" parent="1" target="wHsNp2GTgriPA2F1LTe3-6" edge="1">
          <mxGeometry width="50" height="50" relative="1" as="geometry">
            <mxPoint x="229" y="757" as="sourcePoint" />
            <mxPoint x="279" y="310" as="targetPoint" />
          </mxGeometry>
        </mxCell>
        <mxCell id="wHsNp2GTgriPA2F1LTe3-3" value="" style="endArrow=none;dashed=1;html=1;dashPattern=1 3;strokeWidth=2;rounded=0;entryX=0.5;entryY=1;entryDx=0;entryDy=0;" parent="1" target="wHsNp2GTgriPA2F1LTe3-9" edge="1">
          <mxGeometry width="50" height="50" relative="1" as="geometry">
            <mxPoint x="428" y="760" as="sourcePoint" />
            <mxPoint x="279" y="310" as="targetPoint" />
          </mxGeometry>
        </mxCell>
        <mxCell id="wHsNp2GTgriPA2F1LTe3-4" value="" style="endArrow=none;dashed=1;html=1;dashPattern=1 3;strokeWidth=2;rounded=0;entryX=0.5;entryY=1;entryDx=0;entryDy=0;" parent="1" target="wHsNp2GTgriPA2F1LTe3-11" edge="1">
          <mxGeometry width="50" height="50" relative="1" as="geometry">
            <mxPoint x="628" y="768" as="sourcePoint" />
            <mxPoint x="279" y="310" as="targetPoint" />
          </mxGeometry>
        </mxCell>
        <mxCell id="wHsNp2GTgriPA2F1LTe3-5" value="&lt;div&gt;Администратор&lt;/div&gt;" style="shape=umlActor;verticalLabelPosition=bottom;verticalAlign=top;html=1;outlineConnect=0;align=center;horizontal=1;labelPosition=center;" parent="1" vertex="1">
          <mxGeometry x="79" y="80" width="30" height="60" as="geometry" />
        </mxCell>
        <mxCell id="wHsNp2GTgriPA2F1LTe3-6" value="i: Интерфейс" style="rounded=0;whiteSpace=wrap;html=1;" parent="1" vertex="1">
          <mxGeometry x="169" y="80" width="120" height="60" as="geometry" />
        </mxCell>
        <mxCell id="wHsNp2GTgriPA2F1LTe3-7" value="" style="html=1;points=[[0,0,0,0,5],[0,1,0,0,-5],[1,0,0,0,5],[1,1,0,0,-5]];perimeter=orthogonalPerimeter;outlineConnect=0;targetShapes=umlLifeline;portConstraint=eastwest;newEdgeStyle={&quot;curved&quot;:0,&quot;rounded&quot;:0};" parent="1" vertex="1">
          <mxGeometry x="89" y="210" width="10" height="390" as="geometry" />
        </mxCell>
        <mxCell id="wHsNp2GTgriPA2F1LTe3-8" value="" style="html=1;points=[[0,0,0,0,5],[0,1,0,0,-5],[1,0,0,0,5],[1,1,0,0,-5]];perimeter=orthogonalPerimeter;outlineConnect=0;targetShapes=umlLifeline;portConstraint=eastwest;newEdgeStyle={&quot;curved&quot;:0,&quot;rounded&quot;:0};" parent="1" vertex="1">
          <mxGeometry x="224" y="230" width="10" height="370" as="geometry" />
        </mxCell>
        <mxCell id="wHsNp2GTgriPA2F1LTe3-9" value="back: Backend API" style="rounded=0;whiteSpace=wrap;html=1;" parent="1" vertex="1">
          <mxGeometry x="369" y="80" width="120" height="60" as="geometry" />
        </mxCell>
        <mxCell id="wHsNp2GTgriPA2F1LTe3-10" value="" style="html=1;points=[[0,0,0,0,5],[0,1,0,0,-5],[1,0,0,0,5],[1,1,0,0,-5]];perimeter=orthogonalPerimeter;outlineConnect=0;targetShapes=umlLifeline;portConstraint=eastwest;newEdgeStyle={&quot;curved&quot;:0,&quot;rounded&quot;:0};" parent="1" vertex="1">
          <mxGeometry x="424" y="387" width="10" height="207" as="geometry" />
        </mxCell>
        <mxCell id="wHsNp2GTgriPA2F1LTe3-11" value="db: База данных" style="rounded=0;whiteSpace=wrap;html=1;" parent="1" vertex="1">
          <mxGeometry x="569" y="80" width="120" height="60" as="geometry" />
        </mxCell>
        <mxCell id="wHsNp2GTgriPA2F1LTe3-12" value="" style="html=1;points=[[0,0,0,0,5],[0,1,0,0,-5],[1,0,0,0,5],[1,1,0,0,-5]];perimeter=orthogonalPerimeter;outlineConnect=0;targetShapes=umlLifeline;portConstraint=eastwest;newEdgeStyle={&quot;curved&quot;:0,&quot;rounded&quot;:0};" parent="1" vertex="1">
          <mxGeometry x="624" y="425" width="10" height="118" as="geometry" />
        </mxCell>
        <mxCell id="wHsNp2GTgriPA2F1LTe3-13" value="" style="endArrow=classic;html=1;rounded=0;" parent="1" edge="1">
          <mxGeometry width="50" height="50" relative="1" as="geometry">
            <mxPoint x="99" y="250" as="sourcePoint" />
            <mxPoint x="224" y="250" as="targetPoint" />
            <Array as="points">
              <mxPoint x="179" y="250" />
            </Array>
          </mxGeometry>
        </mxCell>
        <mxCell id="wHsNp2GTgriPA2F1LTe3-14" value="выбратьПитСреду()" style="edgeLabel;html=1;align=center;verticalAlign=middle;resizable=0;points=[];" parent="wHsNp2GTgriPA2F1LTe3-13" vertex="1" connectable="0">
          <mxGeometry x="-0.28" relative="1" as="geometry">
            <mxPoint x="15" y="40" as="offset" />
          </mxGeometry>
        </mxCell>
        <mxCell id="wHsNp2GTgriPA2F1LTe3-15" value="" style="endArrow=classic;html=1;rounded=0;entryX=-0.4;entryY=0.393;entryDx=0;entryDy=0;entryPerimeter=0;" parent="1" source="wHsNp2GTgriPA2F1LTe3-7" target="wHsNp2GTgriPA2F1LTe3-8" edge="1">
          <mxGeometry width="50" height="50" relative="1" as="geometry">
            <mxPoint x="400" y="350" as="sourcePoint" />
            <mxPoint x="210" y="360" as="targetPoint" />
          </mxGeometry>
        </mxCell>
        <mxCell id="wHsNp2GTgriPA2F1LTe3-16" value="нажатьНаКнопкуУдалить()" style="edgeLabel;html=1;align=center;verticalAlign=middle;resizable=0;points=[];" parent="wHsNp2GTgriPA2F1LTe3-15" vertex="1" connectable="0">
          <mxGeometry x="-0.1603" y="-1" relative="1" as="geometry">
            <mxPoint x="15" y="19" as="offset" />
          </mxGeometry>
        </mxCell>
        <mxCell id="wHsNp2GTgriPA2F1LTe3-17" value="" style="endArrow=classic;html=1;rounded=0;" parent="1" source="wHsNp2GTgriPA2F1LTe3-8" target="wHsNp2GTgriPA2F1LTe3-10" edge="1">
          <mxGeometry width="50" height="50" relative="1" as="geometry">
            <mxPoint x="400" y="350" as="sourcePoint" />
            <mxPoint x="420" y="300" as="targetPoint" />
          </mxGeometry>
        </mxCell>
        <mxCell id="wHsNp2GTgriPA2F1LTe3-18" value="запрос(&quot;delete_medium&quot;)" style="edgeLabel;html=1;align=center;verticalAlign=middle;resizable=0;points=[];" parent="wHsNp2GTgriPA2F1LTe3-17" vertex="1" connectable="0">
          <mxGeometry x="-0.3158" relative="1" as="geometry">
            <mxPoint x="31" y="19" as="offset" />
          </mxGeometry>
        </mxCell>
        <mxCell id="wHsNp2GTgriPA2F1LTe3-19" value="" style="endArrow=classic;html=1;rounded=0;entryX=-0.4;entryY=0.697;entryDx=0;entryDy=0;entryPerimeter=0;" parent="1" edge="1">
          <mxGeometry width="50" height="50" relative="1" as="geometry">
            <mxPoint x="434" y="440.001" as="sourcePoint" />
            <mxPoint x="620" y="440.001" as="targetPoint" />
          </mxGeometry>
        </mxCell>
        <mxCell id="wHsNp2GTgriPA2F1LTe3-20" value="удалитьПитСреду()" style="edgeLabel;html=1;align=center;verticalAlign=middle;resizable=0;points=[];" parent="wHsNp2GTgriPA2F1LTe3-19" vertex="1" connectable="0">
          <mxGeometry x="0.2366" y="-2" relative="1" as="geometry">
            <mxPoint x="-19" y="18" as="offset" />
          </mxGeometry>
        </mxCell>
        <mxCell id="wHsNp2GTgriPA2F1LTe3-21" value="вернутьСостояниеУдаления()" style="html=1;verticalAlign=bottom;endArrow=open;dashed=1;endSize=8;curved=0;rounded=0;" parent="1" source="wHsNp2GTgriPA2F1LTe3-12" target="wHsNp2GTgriPA2F1LTe3-10" edge="1">
          <mxGeometry relative="1" as="geometry">
            <mxPoint x="570" y="530" as="sourcePoint" />
            <mxPoint x="490" y="530" as="targetPoint" />
            <Array as="points">
              <mxPoint x="530" y="530" />
            </Array>
          </mxGeometry>
        </mxCell>
        <mxCell id="wHsNp2GTgriPA2F1LTe3-22" value="вернутьСостояниеЗапроса()" style="html=1;verticalAlign=bottom;endArrow=open;dashed=1;endSize=8;curved=0;rounded=0;" parent="1" edge="1">
          <mxGeometry relative="1" as="geometry">
            <mxPoint x="424" y="570" as="sourcePoint" />
            <mxPoint x="234" y="570" as="targetPoint" />
          </mxGeometry>
        </mxCell>
        <mxCell id="wHsNp2GTgriPA2F1LTe3-23" value="уведомление(&quot;success&quot;)" style="html=1;verticalAlign=bottom;endArrow=open;dashed=1;endSize=8;curved=0;rounded=0;entryX=1;entryY=1;entryDx=0;entryDy=-5;entryPerimeter=0;" parent="1" source="wHsNp2GTgriPA2F1LTe3-8" target="wHsNp2GTgriPA2F1LTe3-7" edge="1">
          <mxGeometry relative="1" as="geometry">
            <mxPoint x="190" y="593" as="sourcePoint" />
            <mxPoint x="110" y="593" as="targetPoint" />
          </mxGeometry>
        </mxCell>
      </root>
    </mxGraphModel>
  </diagram>
</mxfile>
